<?xml version="1.0" standalone="no"?>
<!DOCTYPE svg PUBLIC "-//W3C//DTD SVG 20010904//EN"
 "http://www.w3.org/TR/2001/REC-SVG-20010904/DTD/svg10.dtd">
<svg version="1.0" xmlns="http://www.w3.org/2000/svg"
 width="1280.000000pt" height="1109.000000pt" viewBox="0 0 1280.000000 1109.000000"
 preserveAspectRatio="xMidYMid meet">
<metadata>
Created by potrace 1.16, written by Peter Selinger 2001-2019
</metadata>
<g transform="translate(0.000000,1109.000000) scale(0.100000,-0.100000)"
fill="#000000" stroke="none">
<path d="M6774 10839 c-327 -29 -672 -172 -919 -383 -104 -88 -125 -109 -202
-200 -226 -268 -356 -576 -393 -936 -55 -527 182 -1251 585 -1785 220 -291
484 -501 751 -595 49 -17 117 -47 151 -66 61 -34 62 -34 188 -34 127 0 127 0
186 35 33 19 94 46 137 60 96 33 243 110 347 184 90 63 304 271 387 376 244
308 450 730 547 1120 55 218 66 310 66 545 0 199 -3 238 -23 334 -74 344 -220
615 -462 856 -145 145 -268 235 -430 316 -200 100 -392 154 -615 173 -133 12
-169 12 -301 0z"/>
<path d="M6878 6603 c-54 -64 -144 -235 -181 -343 -94 -275 -40 -511 215 -951
134 -229 209 -413 239 -579 7 -41 13 -140 13 -220 -1 -169 -28 -308 -90 -460
-20 -50 -33 -94 -30 -98 28 -27 93 114 131 285 32 139 41 291 26 422 -26 218
-77 358 -232 637 -148 264 -194 358 -229 462 -55 166 -58 321 -9 472 27 82
100 227 151 302 21 32 41 64 44 73 9 21 -29 20 -48 -2z"/>
<path d="M7755 3860 c-13 -22 -106 -60 -144 -60 -22 0 -43 -5 -46 -10 -4 -6
-14 -10 -24 -8 -25 4 -74 -31 -67 -48 3 -8 -1 -14 -9 -14 -9 0 -20 -19 -28
-47 -13 -45 -16 -48 -62 -59 -41 -11 -119 -11 -218 0 -16 2 -41 0 -55 -4 -15
-5 -45 -14 -67 -20 -48 -14 -219 -99 -223 -112 -2 -4 -8 -8 -14 -8 -5 0 -22
-8 -36 -19 -15 -10 -39 -21 -54 -24 -22 -6 -25 -4 -21 12 3 13 -2 21 -16 26
-12 3 -28 20 -37 38 -41 78 -89 86 -156 24 -39 -35 -45 -45 -36 -61 24 -43
-71 -68 -114 -30 -27 25 -40 13 -23 -20 8 -15 15 -37 15 -47 0 -33 49 -41 137
-24 18 4 20 10 16 44 -5 36 -4 39 15 34 12 -3 32 4 51 18 29 21 31 21 55 5 15
-9 26 -21 26 -26 0 -4 7 -16 16 -24 14 -15 13 -19 -12 -49 -30 -35 -47 -36
-81 -4 -13 11 -23 16 -23 10 0 -5 9 -18 19 -27 30 -27 9 -63 -43 -77 -23 -5
-59 -16 -82 -24 -22 -7 -53 -10 -69 -7 -41 7 -59 -20 -40 -64 7 -18 11 -35 8
-38 -3 -3 -7 -23 -8 -45 -2 -39 -2 -40 19 -26 11 8 33 15 48 15 15 0 30 5 34
11 5 8 9 7 14 -1 5 -7 4 -18 -1 -24 -5 -6 -20 -26 -35 -43 -14 -18 -34 -33
-45 -33 -10 0 -19 -4 -19 -9 0 -6 12 -9 27 -8 23 2 29 -3 31 -23 2 -14 1 -22
-4 -18 -4 4 -14 2 -22 -5 -12 -9 -16 -9 -19 1 -6 17 -28 15 -43 -3 -12 -14
-24 -14 -68 2 -8 4 -10 0 -6 -11 3 -8 15 -18 26 -22 11 -3 28 -14 38 -24 10
-10 23 -19 31 -22 15 -5 -37 -68 -58 -68 -7 0 -13 -6 -13 -14 0 -8 -7 -16 -15
-20 -17 -6 -46 30 -39 48 3 7 -4 20 -15 31 -18 15 -23 16 -37 4 -14 -12 -21
-8 -54 31 -35 41 -38 43 -54 27 -19 -18 -25 -20 -73 -17 -44 2 -73 -16 -73
-45 0 -31 -8 -35 -80 -38 -52 -2 -64 1 -79 19 -9 11 -28 28 -43 38 l-27 18
-10 -39 c-28 -103 -53 -259 -58 -355 -5 -96 -4 -108 11 -108 21 0 21 -14 0
-31 -14 -11 -16 -28 -11 -104 18 -309 124 -593 319 -858 55 -76 158 -186 231
-249 l57 -50 18 22 17 21 24 -20 c13 -12 28 -21 33 -21 4 0 8 -7 8 -15 0 -17
-30 -17 -41 -1 -4 5 -12 5 -18 1 -13 -7 42 -53 114 -95 116 -67 192 -108 215
-115 14 -4 63 -22 110 -40 181 -70 245 -79 545 -79 291 0 328 5 510 67 l70 24
1 84 c0 46 2 93 2 105 2 22 60 119 67 112 6 -6 44 -153 51 -198 7 -42 9 -44
30 -36 14 5 16 16 11 60 -3 30 -13 69 -23 87 -16 31 -43 134 -44 168 0 7 6 11
13 8 10 -4 13 23 13 122 1 125 9 181 26 192 12 8 17 89 6 89 -5 0 2 15 15 33
34 45 43 62 29 53 -7 -4 -12 -3 -12 3 0 13 96 111 108 111 6 0 13 11 16 24 4
17 18 29 42 38 26 9 34 17 31 30 -3 9 1 22 9 28 17 15 58 -14 75 -52 6 -16 14
-28 18 -28 3 0 49 -26 102 -58 93 -55 151 -111 237 -229 11 -15 22 -26 25 -23
9 12 106 228 116 260 52 168 81 303 81 376 l0 55 -44 -6 c-51 -8 -78 3 -118
47 -31 34 -36 69 -12 88 8 8 20 22 25 32 10 19 9 19 -15 3 -14 -10 -26 -22
-26 -27 0 -5 -4 -6 -10 -3 -5 3 -10 30 -10 58 0 65 -10 83 -38 68 -11 -6 -22
-17 -25 -25 -3 -7 -23 -16 -44 -18 -32 -4 -88 -17 -152 -35 -10 -3 -5 -13 17
-36 18 -18 32 -42 32 -52 -1 -44 -55 -81 -103 -71 -23 5 -36 1 -54 -16 -22
-21 -26 -21 -51 -8 -30 17 -53 77 -34 89 8 5 8 18 0 49 -14 56 -1 72 61 72 41
0 51 5 82 36 22 24 30 38 22 41 -7 3 -13 16 -13 29 0 24 -1 24 -25 8 -20 -13
-28 -14 -40 -4 -8 7 -15 19 -15 26 0 8 -5 14 -11 14 -6 0 -20 11 -31 25 -11
14 -24 25 -29 25 -5 0 -36 26 -69 57 -44 42 -60 65 -60 84 0 15 6 29 13 32 21
7 225 -3 252 -13 29 -11 33 -44 9 -78 -8 -12 -13 -31 -9 -41 5 -18 7 -18 63
-1 52 16 58 21 64 51 12 65 19 94 23 98 2 2 0 12 -6 22 -7 14 -4 29 11 58 23
46 31 53 50 41 15 -9 21 -59 10 -75 -4 -5 -7 -17 -7 -25 -1 -8 -4 -23 -8 -32
-4 -11 -3 -18 3 -18 18 0 62 23 62 31 0 5 6 7 13 5 6 -1 9 -1 5 1 -14 8 -9 33
6 33 8 0 17 7 20 16 9 24 7 29 -6 16 -21 -21 -35 -13 -52 32 -12 31 -14 51 -8
63 12 24 4 43 -18 43 -30 0 -33 18 -5 36 14 9 28 27 31 40 7 29 24 31 31 5 3
-12 16 -21 36 -24 18 -2 33 -3 35 -2 8 7 -90 177 -129 223 -6 8 -37 46 -69 85
-70 89 -252 258 -277 258 -10 0 -32 -3 -49 -7 -26 -5 -35 -1 -60 25 -16 17
-31 43 -34 57 -3 15 -12 31 -20 35 -109 62 -165 90 -210 103 -64 19 -57 18
-65 6z m227 -396 c29 -15 63 -36 75 -47 l22 -20 50 22 c67 28 85 21 77 -34
l-7 -42 38 -1 c21 0 57 -1 81 -2 32 0 42 -4 43 -18 2 -23 2 -24 -6 -43 -4 -11
0 -18 14 -22 12 -3 26 -18 32 -34 6 -15 18 -36 27 -46 16 -18 17 -18 24 0 6
14 7 12 4 -6 -3 -14 0 -31 5 -38 6 -6 8 -17 4 -22 -12 -20 -100 -52 -127 -47
-18 4 -28 1 -28 -7 0 -6 -4 -18 -9 -26 -8 -13 -15 -12 -51 4 -31 14 -43 16
-52 7 -7 -7 -24 -12 -40 -12 -17 0 -37 -10 -52 -27 -14 -15 -24 -28 -22 -30 1
-1 43 -4 92 -6 l89 -4 17 -33 c9 -18 15 -37 12 -41 -7 -12 -119 -2 -146 12
-13 7 -28 12 -35 11 -6 -1 -14 7 -18 18 -3 11 -12 20 -20 20 -7 0 -19 16 -25
36 -10 30 -10 39 4 52 14 14 17 14 34 -1 23 -21 31 -15 24 18 -3 20 -10 25
-33 25 -16 0 -29 -4 -29 -10 0 -5 -5 -10 -11 -10 -6 0 -9 7 -5 15 3 8 1 15 -4
15 -6 0 -10 -4 -10 -10 0 -5 -7 -7 -15 -4 -10 4 -12 10 -6 18 5 6 7 35 5 64
-4 46 -2 52 15 52 19 0 61 -47 61 -69 0 -6 5 -11 10 -11 6 0 10 -8 11 -17 0
-14 2 -13 9 5 5 12 14 22 20 22 18 0 11 35 -11 50 -11 8 -28 20 -36 26 -8 6
-14 18 -12 28 4 16 6 16 28 -3 13 -12 25 -21 27 -21 2 0 15 11 30 25 l26 25
-28 10 c-16 6 -39 9 -52 7 -17 -3 -24 1 -28 18 -3 12 -22 38 -42 56 -20 19
-30 26 -23 17 12 -16 11 -18 -8 -18 -16 0 -26 10 -37 35 -8 19 -18 35 -22 35
-12 0 -52 39 -52 50 0 17 37 11 92 -16z m-368 -246 c33 -13 85 -66 86 -85 0
-7 4 -13 9 -13 12 0 81 -201 81 -239 0 -32 0 -32 -27 -18 -50 27 -109 38 -138
27 -15 -6 -45 -11 -66 -12 -22 -1 -44 -7 -50 -15 -16 -19 -3 -43 23 -43 21 0
20 -2 -9 -21 -62 -40 -32 -101 72 -145 33 -14 115 -20 102 -8 -8 8 12 28 38
38 18 7 17 9 -14 22 -18 8 -43 14 -55 14 -26 0 -51 18 -59 42 -9 25 50 58 102
58 45 0 74 -21 92 -68 14 -35 32 -350 25 -424 -8 -79 -30 -130 -101 -228 -33
-47 -71 -102 -84 -122 -51 -85 -117 -105 -267 -83 -84 12 -122 24 -186 56 -70
35 -82 45 -99 84 -10 24 -22 58 -26 77 -3 18 -12 39 -20 46 -19 20 -16 34 7
27 11 -3 20 -3 20 0 0 13 -23 50 -36 58 -8 4 -14 12 -14 18 0 5 -15 24 -34 42
-18 17 -37 46 -41 62 -14 56 -17 216 -4 247 24 59 91 86 135 53 12 -9 14 -14
6 -15 -7 0 -10 -5 -6 -11 17 -28 176 20 191 56 3 10 19 15 43 15 l38 0 -2 80
c-1 48 -6 84 -14 92 -6 6 -12 9 -12 5 0 -4 -10 -2 -22 5 -13 7 -32 13 -43 13
-11 0 -34 4 -52 8 -28 7 -61 2 -136 -20 -15 -4 -11 7 16 46 20 28 38 65 42 82
10 45 75 107 122 114 21 3 61 15 88 27 28 11 70 26 95 34 25 7 41 13 35 14 -5
0 4 7 20 15 32 15 80 12 129 -7z m-1623 -990 c18 -29 34 -55 35 -57 2 -1 17 4
35 13 39 19 50 14 43 -23 -4 -16 -1 -32 5 -35 7 -5 11 2 11 18 0 16 6 26 14
26 11 0 13 -10 9 -42 -6 -51 -12 -58 -44 -62 -14 -1 -29 -5 -35 -8 -14 -9 -97
-11 -117 -3 -9 4 -23 2 -31 -4 -12 -10 -15 -6 -21 19 -4 16 -22 48 -41 71 -21
25 -34 52 -34 69 0 24 5 29 34 34 19 4 39 13 46 21 25 31 56 18 91 -37z"/>
<path d="M7249 2528 c-16 -18 -29 -36 -29 -41 0 -4 -31 -41 -70 -82 -54 -57
-70 -81 -70 -103 0 -30 25 -63 32 -42 1 5 28 -8 58 -30 30 -21 70 -42 88 -46
17 -3 32 -10 32 -14 0 -17 68 -34 140 -34 89 0 128 19 180 85 35 43 45 42 66
-5 13 -30 13 -30 14 -6 0 14 9 45 20 69 30 64 26 81 -32 142 -29 31 -68 73
-86 95 -28 33 -32 35 -27 14 4 -14 8 -35 9 -46 1 -12 14 -46 29 -75 14 -29 25
-54 24 -54 -11 -6 -126 29 -124 38 1 6 -9 13 -23 15 -13 2 -35 13 -49 23 -15
13 -40 19 -70 19 -67 0 -86 16 -77 68 3 23 4 42 1 42 -4 0 -19 -15 -36 -32z
m313 -253 c11 -43 3 -55 -37 -55 -21 0 -34 -4 -30 -10 3 -5 12 -7 20 -3 8 3
15 1 15 -3 0 -15 -205 -11 -223 4 -10 9 -17 10 -22 2 -3 -6 -12 -7 -18 -3 -7
4 -19 8 -27 8 -17 0 -27 45 -10 45 7 0 23 8 36 19 20 15 37 18 103 15 43 -1
91 1 107 6 51 16 77 8 86 -25z"/>
<path d="M6199 3130 c-24 -22 -51 -40 -60 -40 -25 0 -30 -26 -10 -44 10 -9 22
-16 27 -16 5 0 22 -11 38 -25 16 -14 35 -25 42 -25 23 0 39 43 35 94 -2 33 0
46 8 42 6 -4 11 0 11 9 0 9 -4 13 -10 10 -5 -3 -10 3 -10 14 0 32 -24 25 -71
-19z"/>
<path d="M5691 2938 c-12 -28 -19 -54 -15 -57 3 -3 44 -5 91 -4 78 1 87 3 114
29 16 15 29 31 29 35 0 13 -57 30 -82 24 -16 -4 -29 -1 -37 9 -8 9 -28 16 -46
16 -30 0 -34 -4 -54 -52z"/>
<path d="M8602 2689 c-7 -11 -28 -29 -47 -40 -30 -18 -33 -23 -24 -45 5 -14 9
-36 9 -49 0 -17 9 -27 38 -38 27 -11 39 -12 44 -3 3 6 9 53 13 104 6 75 5 92
-6 92 -8 0 -20 -9 -27 -21z"/>
</g>
</svg>
