<?xml version="1.0" standalone="no"?>
<!DOCTYPE svg PUBLIC "-//W3C//DTD SVG 20010904//EN"
 "http://www.w3.org/TR/2001/REC-SVG-20010904/DTD/svg10.dtd">
<svg version="1.0" xmlns="http://www.w3.org/2000/svg"
 width="1280.000000pt" height="1109.000000pt" viewBox="0 0 1280.000000 1109.000000"
 preserveAspectRatio="xMidYMid meet">
<metadata>
Created by potrace 1.16, written by Peter Selinger 2001-2019
</metadata>
<g transform="translate(0.000000,1109.000000) scale(0.100000,-0.100000)"
fill="#000000" stroke="none">
<path d="M8850 5043 c0 -5 27 -23 59 -40 59 -33 60 -33 199 -33 140 0 140 0
196 32 31 18 56 36 56 40 0 4 -115 8 -255 8 -140 0 -255 -3 -255 -7z"/>
<path d="M9070 4713 c0 -9 14 -131 31 -271 18 -150 28 -272 25 -296 -10 -62
-38 -100 -113 -153 -95 -68 -132 -102 -159 -145 -90 -143 -104 -354 -39 -597
14 -51 25 -94 25 -97 0 -2 -18 -4 -39 -4 -205 0 -524 -106 -731 -242 -105 -70
-152 -109 -251 -207 -103 -104 -169 -187 -236 -301 -67 -113 -83 -152 -77
-178 4 -14 -2 -29 -19 -46 -60 -60 -107 -276 -114 -520 -5 -186 1 -258 38
-414 50 -209 169 -450 297 -600 46 -54 62 -56 65 -11 2 37 27 58 66 55 30 -2
31 -1 15 11 -10 7 -13 13 -5 13 7 0 9 5 5 11 -4 7 -1 10 7 7 8 -3 19 1 24 8
14 17 132 23 121 6 -3 -5 5 -8 17 -8 17 1 21 -4 19 -21 -2 -17 1 -20 17 -16
12 3 18 10 14 16 -3 6 -1 7 5 3 7 -4 28 -3 47 3 30 8 37 7 45 -8 5 -10 7 -31
3 -47 -3 -16 -6 -42 -6 -57 0 -15 -4 -23 -7 -16 -5 7 -10 8 -14 1 -3 -5 0 -12
8 -15 18 -7 13 -82 -5 -82 -9 0 -17 20 -23 55 l-9 55 -7 -37 c-4 -21 -15 -47
-24 -57 -12 -13 -14 -21 -6 -26 6 -3 9 -1 8 6 -2 6 2 13 7 15 12 5 13 -175 2
-193 -4 -6 9 -21 30 -33 29 -17 38 -18 44 -8 7 10 9 9 9 -3 0 -9 7 -19 15 -23
12 -4 13 -2 6 13 -6 10 -8 21 -5 24 4 3 8 25 10 49 5 57 10 86 23 127 6 19 9
37 7 40 -2 3 6 15 17 26 14 14 18 15 15 5 -4 -11 1 -16 19 -18 19 -1 24 2 19
14 -3 9 -6 19 -6 22 0 4 -4 1 -8 -6 -7 -9 -13 -7 -27 9 -14 14 -15 19 -5 17 7
-2 15 6 17 17 3 16 2 17 -6 5 -9 -13 -11 -12 -11 4 0 12 5 16 15 12 8 -3 15
-1 15 3 0 5 -7 12 -15 15 -14 5 -13 11 6 47 13 26 24 38 28 30 7 -11 21 9 34
49 4 11 6 10 6 -3 1 -27 26 -15 26 13 0 20 9 26 57 41 31 9 59 14 63 11 3 -3
5 -1 5 5 0 5 12 15 26 21 15 7 22 17 18 24 -4 7 -3 8 4 4 7 -4 12 -3 12 2 0 6
9 8 20 5 23 -6 27 -54 10 -113 -6 -19 -11 -60 -11 -90 -1 -31 -4 -47 -8 -37
-6 17 -9 17 -19 4 -14 -16 -13 -77 1 -77 4 0 5 -5 1 -12 -4 -6 -7 -27 -6 -46
1 -19 -2 -40 -5 -46 -4 -6 -8 -29 -9 -51 -1 -22 -11 -94 -22 -159 -20 -111
-21 -139 -6 -124 4 5 64 355 64 380 0 4 10 8 23 10 12 2 22 8 22 15 0 22 13
25 24 5 6 -11 31 -28 55 -37 56 -21 102 -9 142 38 15 18 25 24 21 14 -4 -11
-1 -20 9 -24 9 -3 13 -12 9 -22 -15 -36 -6 -267 15 -369 l13 -62 52 0 c52 0
53 0 51 29 -1 21 2 27 11 24 8 -3 13 0 11 8 -2 8 5 14 14 14 9 0 20 4 24 8 13
12 36 8 28 -5 -4 -7 -3 -9 1 -5 5 4 10 13 11 20 1 7 4 19 6 27 3 8 3 12 1 8
-3 -5 -9 -8 -15 -8 -7 0 -6 5 2 14 13 17 40 10 40 -10 0 -8 5 -14 11 -14 5 0
8 -4 5 -9 -4 -5 -2 -11 4 -13 5 -1 10 -18 12 -35 2 -32 28 -48 28 -18 0 8 5
15 11 15 5 0 7 -4 4 -10 -3 -5 1 -10 9 -10 14 0 14 3 4 20 -11 17 -10 22 1 29
7 5 10 14 7 20 -4 6 -12 9 -17 6 -5 -3 -6 1 -3 9 3 9 10 14 14 11 5 -3 6 10 3
29 -3 19 -1 36 5 40 6 4 8 14 5 23 -4 10 -2 14 4 10 6 -4 19 2 29 12 18 17 19
17 31 -21 8 -29 8 -46 0 -69 -8 -19 -8 -32 -2 -37 10 -7 17 -27 18 -49 1 -23
16 -14 32 18 16 30 16 30 -4 19 -24 -12 -26 -8 -10 21 7 15 7 24 -1 34 -7 8
-9 26 -6 42 4 15 7 45 8 65 1 21 5 35 10 32 4 -3 8 -1 8 5 0 5 -4 13 -10 16
-14 9 -12 32 6 72 12 25 19 31 25 21 7 -10 9 -8 9 5 0 18 1 18 17 1 13 -13 14
-19 5 -22 -18 -6 -15 -20 10 -33 20 -11 21 -10 15 34 -6 41 -5 45 13 40 12 -3
20 0 20 6 0 7 -4 9 -10 6 -5 -3 -10 1 -10 9 0 9 4 16 8 16 5 0 9 13 9 30 0 16
-4 27 -9 24 -4 -3 -8 -12 -8 -20 0 -8 -4 -14 -9 -14 -5 0 -5 15 1 35 6 19 16
31 21 28 6 -4 8 1 4 11 -5 13 -3 17 7 13 10 -4 13 -1 10 7 -9 23 16 29 32 10
9 -11 13 -13 9 -7 -3 7 -3 19 1 25 6 9 10 5 15 -12 l7 -25 1 26 c1 14 4 29 9
33 4 4 7 11 7 14 1 14 26 52 35 52 5 0 11 -8 13 -17 4 -17 5 -17 6 0 0 9 6 17
11 17 18 0 10 -23 -17 -54 -16 -17 -20 -24 -11 -17 16 12 17 11 12 -18 -5 -21
-3 -31 6 -31 7 0 10 7 6 15 -3 8 -1 15 4 15 6 0 10 8 10 19 0 10 7 24 16 32
10 8 13 21 9 38 -6 26 -5 25 14 -4 14 -20 17 -33 10 -41 -7 -8 -6 -15 2 -20 7
-4 18 1 27 12 12 16 14 16 9 2 -3 -10 -2 -20 3 -23 5 -3 11 2 13 10 3 11 4 10
3 -2 -1 -10 -7 -17 -12 -16 -6 1 -10 -13 -10 -32 1 -18 4 -31 7 -29 9 5 6 -83
-3 -92 -11 -10 -10 -26 1 -20 5 3 14 -1 20 -8 9 -11 9 -16 0 -22 -8 -4 -9 -3
-5 4 4 7 2 12 -3 12 -6 0 -11 -7 -11 -15 0 -8 -4 -15 -9 -15 -5 0 -12 -10 -14
-22 -3 -14 -5 -7 -6 17 -1 30 -4 36 -11 24 -6 -10 -5 -29 2 -51 13 -42 4 -82
-13 -58 -9 13 -10 13 -6 0 2 -8 10 -14 16 -13 6 2 11 -6 11 -17 0 -11 -4 -20
-10 -20 -5 0 -6 -7 -3 -17 4 -11 3 -14 -5 -9 -7 4 -12 1 -12 -8 0 -8 -8 -19
-17 -25 -10 -5 -16 -12 -13 -15 7 -6 142 76 215 133 65 50 201 182 254 246
149 181 257 409 318 670 26 114 26 493 0 610 -107 480 -406 870 -822 1075
-211 103 -375 147 -586 157 l-137 6 -26 107 c-54 218 -54 381 0 500 36 80 67
114 152 174 98 69 126 100 146 159 21 64 21 83 -14 367 -16 135 -30 251 -30
258 0 6 -9 12 -20 12 -12 0 -20 -7 -20 -17z m-512 -1837 c26 -26 27 -27 8 -42
-14 -10 -16 -14 -5 -14 8 0 1 -12 -19 -30 -17 -17 -33 -33 -35 -37 -1 -5 -20
-6 -42 -5 -30 3 -48 13 -74 40 -19 20 -30 37 -24 39 5 2 8 14 6 27 -8 41 22
59 94 54 53 -3 68 -9 91 -32z m600 -231 c17 -4 32 -12 32 -17 0 -5 5 -6 10 -3
6 3 10 2 10 -4 0 -5 11 -8 24 -5 24 4 52 -18 42 -34 -3 -5 1 -18 9 -28 8 -10
15 -27 15 -36 0 -10 5 -18 12 -18 9 0 9 -3 0 -12 -15 -15 -16 -32 -2 -23 6 4
11 -11 12 -37 4 -92 5 -104 12 -123 37 -97 37 -95 19 -95 -16 0 -64 13 -110
31 -14 5 -23 5 -23 -1 0 -5 -13 -5 -32 1 -40 11 -38 11 -38 -2 0 -5 5 -7 11
-4 6 4 9 0 7 -11 -3 -19 29 -31 134 -49 21 -3 49 -16 63 -28 25 -22 42 -67 25
-67 -5 0 -11 -8 -13 -17 -4 -16 -6 -15 -12 4 -8 25 -65 67 -115 84 -19 7 -41
19 -48 26 -18 17 -62 16 -86 -2 -11 -8 -16 -15 -11 -15 5 0 4 -5 -3 -12 -27
-27 -10 -27 20 1 17 16 37 27 45 24 10 -4 7 -11 -11 -28 l-25 -23 37 -23 c110
-66 125 -71 184 -65 55 5 56 5 67 -24 6 -18 6 -30 0 -30 -5 0 -9 -6 -9 -14 0
-8 -9 -21 -20 -29 -12 -8 -18 -22 -15 -35 2 -12 0 -22 -6 -22 -5 0 -8 -3 -7
-7 1 -5 -6 -25 -15 -47 -9 -21 -17 -48 -17 -60 0 -12 -6 -28 -12 -36 -7 -8 -2
-6 11 5 l24 20 -19 -35 c-22 -40 -68 -90 -83 -90 -5 0 -12 -8 -15 -17 -10 -32
-101 -76 -176 -86 -19 -3 -55 -12 -80 -21 -49 -18 -158 -25 -181 -11 -7 5 -23
11 -33 12 -40 7 -71 48 -81 104 -3 19 -15 78 -26 132 -21 96 -21 125 -7 289 3
26 11 54 18 63 7 9 15 33 17 52 4 40 29 66 53 56 8 -3 55 -8 103 -9 l89 -3 -7
26 c-5 23 -4 24 10 10 8 -9 15 -23 15 -32 0 -27 -37 -91 -79 -134 -22 -23 -43
-51 -46 -62 -9 -28 19 -83 51 -98 40 -18 38 -9 -6 35 -22 21 -40 44 -40 51 0
19 21 27 31 12 4 -7 10 -11 12 -9 19 25 73 115 93 157 l26 53 -21 35 c-11 19
-16 35 -11 35 6 0 10 9 10 21 0 18 -93 119 -109 117 -19 -2 -29 4 -34 21 -3
13 0 17 12 14 11 -3 23 9 36 34 22 43 67 115 76 123 7 6 23 43 21 50 -1 8 147
3 186 -5z m-1184 -367 c1 -2 12 -18 25 -36 l23 -34 -27 -28 c-15 -16 -38 -31
-50 -34 -13 -3 -33 -22 -45 -42 -19 -30 -27 -35 -54 -32 -25 2 -33 9 -42 37
-8 26 -19 37 -45 45 -61 20 -76 112 -20 126 22 5 233 3 235 -2z m636 -696 c22
-5 20 -6 -15 -12 l-40 -7 44 -2 c26 0 52 -8 64 -18 15 -14 21 -15 25 -5 7 22
51 -26 61 -67 20 -81 22 -111 8 -111 -17 0 -15 -93 2 -114 8 -10 7 -17 -6 -27
-11 -9 -14 -10 -9 -1 4 6 2 12 -3 12 -17 0 -13 -12 17 -61 26 -40 65 -146 78
-209 25 -124 37 -270 22 -270 -5 0 -26 9 -48 20 -65 33 -134 24 -170 -22 -21
-26 -54 -14 -46 16 12 43 27 232 21 266 -6 33 -34 70 -53 70 -17 0 -42 73 -51
153 -19 158 -24 182 -43 198 -10 9 -18 20 -18 25 0 5 -13 9 -29 9 -32 0 -46
-22 -30 -46 7 -11 9 -9 9 6 0 14 3 16 11 8 7 -7 9 -25 5 -48 -4 -20 -10 -35
-13 -31 -7 6 -33 -19 -33 -32 0 -11 -24 -22 -46 -22 -10 0 -14 13 -15 43 l-1
42 -11 -41 c-7 -23 -17 -39 -24 -37 -6 2 -14 -1 -18 -6 -4 -7 3 -11 17 -11 13
0 29 -4 36 -8 12 -8 11 -49 -1 -82 -3 -8 -7 -24 -9 -35 -2 -12 -11 -19 -22
-18 -16 1 -14 -3 8 -22 21 -18 25 -29 20 -49 -3 -14 -12 -30 -19 -36 -11 -9
-11 -4 -5 27 8 34 7 36 -6 19 -8 -11 -14 -30 -14 -43 0 -13 -9 -32 -19 -42
-13 -13 -16 -21 -8 -24 7 -2 -1 -4 -18 -5 -16 -1 -41 -3 -54 -4 -19 -2 -27 3
-33 22 -5 18 -6 15 -3 -11 l6 -37 -43 10 c-24 5 -57 7 -75 3 -21 -4 -36 -1
-47 11 -11 11 -25 14 -46 9 -23 -5 -35 -1 -57 19 -15 14 -30 26 -33 26 -10 0
-6 55 5 62 6 5 6 8 -2 8 -14 0 -12 17 7 50 8 14 15 28 16 33 1 4 3 10 4 15 2
4 4 12 5 17 4 25 17 55 25 55 4 0 11 12 14 28 17 73 92 172 131 172 8 0 15 7
15 15 0 17 39 36 54 27 5 -3 6 0 3 5 -11 18 84 51 161 57 73 5 74 5 68 -17
-20 -75 -20 -74 8 -37 29 38 49 47 111 50 32 1 36 3 20 10 -11 5 -15 9 -10 9
6 1 3 6 -5 11 -10 7 -11 10 -2 11 6 1 17 3 22 4 6 1 15 3 21 4 5 0 8 5 5 10
-12 19 34 21 104 3z m615 -109 c0 -13 -4 -22 -7 -21 -10 5 -49 -35 -64 -65 -8
-15 -19 -25 -24 -22 -6 4 -10 1 -10 -5 0 -20 -80 -130 -95 -130 -8 0 -15 -9
-15 -19 0 -11 -4 -23 -10 -26 -5 -3 -17 -21 -26 -40 -8 -18 -30 -50 -48 -71
l-33 -38 -31 81 c-27 70 -32 98 -38 212 l-6 131 78 1 c149 2 226 9 252 21 15
7 38 13 53 14 21 1 26 -3 24 -23z m-412 -794 c27 -29 34 -67 21 -116 -9 -33
-83 -66 -125 -56 -45 12 -74 54 -74 108 0 50 23 81 69 94 44 12 77 3 109 -30z
m170 -167 c15 -14 27 -33 26 -41 -1 -9 4 -28 11 -43 11 -23 11 -30 0 -43 -7
-9 -15 -28 -16 -43 -3 -21 -1 -24 7 -12 8 11 9 7 6 -17 -2 -18 -1 -31 1 -28 3
3 11 0 19 -6 10 -9 13 -7 13 11 0 13 3 20 7 17 3 -4 13 -1 21 6 9 6 5 -3 -8
-21 -13 -18 -30 -30 -37 -28 -7 3 -13 -1 -13 -8 0 -8 6 -16 13 -19 8 -3 4 -13
-12 -31 -30 -31 -45 -34 -36 -5 5 15 4 19 -4 15 -6 -4 -11 -2 -11 5 0 7 -2 10
-4 8 -3 -3 -1 -22 4 -43 5 -23 5 -35 -1 -29 -16 16 -34 209 -21 237 9 20 8 28
-2 39 -14 14 -20 53 -16 112 1 27 2 28 13 11 7 -10 25 -30 40 -44z"/>
<path d="M8790 1913 c0 -7 -12 -13 -26 -13 -17 0 -24 -4 -21 -13 2 -7 10 -39
17 -71 15 -73 50 -114 104 -123 28 -4 37 -3 32 5 -5 8 2 12 21 11 17 -1 21 -3
10 -6 -29 -8 -8 -23 31 -23 26 0 61 14 113 43 42 24 81 41 87 39 7 -2 12 1 12
8 0 6 -4 9 -8 6 -5 -3 -33 6 -63 20 -72 34 -129 54 -156 54 -12 0 -24 4 -28 9
-3 5 -29 17 -58 27 -28 9 -55 22 -59 28 -5 8 -8 7 -8 -1z m80 -81 c80 -28 191
-61 220 -65 23 -3 22 -5 -15 -22 -52 -24 -104 -24 -188 0 -58 15 -73 24 -93
54 -44 66 -31 72 76 33z"/>
</g>
</svg>
