<?xml version="1.0" standalone="no"?>
<!DOCTYPE svg PUBLIC "-//W3C//DTD SVG 20010904//EN"
 "http://www.w3.org/TR/2001/REC-SVG-20010904/DTD/svg10.dtd">
<svg version="1.0" xmlns="http://www.w3.org/2000/svg"
 width="1280.000000pt" height="1109.000000pt" viewBox="0 0 1280.000000 1109.000000"
 preserveAspectRatio="xMidYMid meet">
<metadata>
Created by potrace 1.16, written by Peter Selinger 2001-2019
</metadata>
<g transform="translate(0.000000,1109.000000) scale(0.100000,-0.100000)"
fill="#000000" stroke="none">
<path d="M4487 9355 c-201 -33 -405 -103 -572 -198 -137 -77 -305 -209 -392
-306 -17 -20 -48 -54 -68 -76 -112 -121 -258 -387 -318 -580 -118 -378 -95
-807 69 -1286 44 -128 63 -177 110 -275 13 -28 24 -54 24 -57 0 -17 143 -266
207 -362 110 -163 117 -172 203 -270 216 -246 426 -397 670 -483 80 -28 174
-75 184 -91 3 -4 -10 -58 -28 -121 l-33 -115 56 -3 57 -3 10 -67 c15 -96 66
-195 133 -263 45 -45 84 -69 202 -127 124 -60 154 -79 196 -125 85 -94 146
-242 221 -537 34 -135 37 -155 37 -295 0 -170 -8 -203 -95 -389 -69 -149 -124
-326 -105 -344 16 -16 40 19 51 76 12 61 43 140 123 320 56 126 71 195 71 332
0 129 -23 259 -84 468 -94 322 -177 437 -386 528 -132 57 -201 109 -251 187
-39 60 -79 168 -79 213 l0 24 130 0 c72 0 130 2 130 4 0 8 -51 142 -59 157 -5
9 -13 32 -16 51 -6 34 -6 34 67 70 40 21 111 51 158 69 101 37 216 101 320
177 99 74 287 258 358 352 31 41 63 81 70 89 11 12 91 129 117 173 143 237
228 418 303 643 90 267 131 477 139 720 5 144 1 208 -23 365 -12 78 -56 226
-99 333 -110 268 -275 486 -524 690 -177 144 -494 286 -725 323 -21 3 -48 8
-60 11 -53 13 -414 12 -499 -2z m-374 -394 c-100 -156 -779 -1108 -781 -1096
-2 9 4 51 13 93 68 305 248 599 509 831 89 79 251 200 269 201 5 0 1 -13 -10
-29z"/>
<path d="M5880 2648 c-25 -5 -98 -10 -164 -11 -112 -2 -119 -3 -127 -24 -13
-37 -47 -63 -80 -63 -23 0 -30 -4 -26 -14 7 -17 -18 -30 -50 -27 -13 1 -23 -2
-23 -8 0 -6 -11 -11 -25 -11 -20 0 -25 -5 -25 -25 0 -16 6 -25 15 -25 8 0 15
-7 15 -15 0 -8 6 -15 13 -16 6 0 -6 -6 -28 -13 -22 -7 -41 -8 -43 -4 -2 4 -10
8 -18 8 -8 0 -14 7 -14 15 0 8 -7 15 -15 15 -8 0 -15 -7 -15 -15 0 -19 -56
-21 -63 -2 -4 9 -8 9 -15 -2 -6 -8 -21 -16 -33 -18 -13 -2 -26 -8 -30 -15 -9
-15 -32 1 -25 18 12 32 -16 20 -54 -23 -48 -54 -85 -123 -107 -196 -15 -50
-19 -162 -8 -198 9 -29 62 -77 114 -104 25 -13 38 -24 29 -25 -21 0 -25 -20
-4 -20 31 0 40 -28 27 -83 -7 -29 -15 -79 -18 -112 -3 -33 -10 -68 -15 -79 -8
-14 -7 -17 2 -11 10 6 11 1 7 -16 -3 -13 -8 -35 -11 -48 -3 -12 -9 -28 -14
-35 -6 -6 -13 -27 -18 -46 -10 -44 -12 -270 -2 -270 4 0 5 -6 2 -14 -3 -8 -1
-24 5 -35 6 -11 7 -22 2 -25 -5 -3 -7 -31 -5 -61 3 -36 1 -54 -6 -50 -6 3 -7
0 -4 -9 3 -9 10 -13 15 -10 15 9 -1 -67 -24 -116 -41 -88 -41 -87 -10 -60 15
14 31 29 34 34 4 5 21 7 38 4 28 -4 30 -2 25 19 -7 25 22 113 36 113 5 0 11 8
13 18 4 14 5 14 6 1 0 -9 -6 -22 -14 -29 -20 -17 -21 -92 -1 -84 11 4 13 12 5
31 -13 35 -11 42 6 13 18 -34 27 -31 30 8 3 38 34 112 47 112 4 0 7 -3 6 -7
-4 -16 13 -83 21 -83 5 0 6 11 3 25 -4 22 -1 25 23 25 24 0 27 3 23 24 -4 21
0 25 29 31 40 7 54 0 46 -22 -4 -10 3 -22 18 -34 32 -25 42 -24 37 5 -5 22 -3
24 21 15 43 -17 53 -30 47 -64 -5 -25 -1 -36 18 -54 l24 -22 6 26 c4 14 3 31
-1 38 -4 7 0 7 10 -2 23 -18 25 -141 3 -141 -8 0 -43 24 -78 53 -110 92 -135
107 -170 106 -18 0 -27 -3 -20 -6 21 -8 13 -60 -19 -123 -16 -33 -34 -60 -37
-60 -12 0 -31 -59 -21 -66 5 -3 9 -13 9 -22 0 -9 9 -30 20 -47 l20 -30 0 27
c0 15 -7 33 -15 42 -13 13 -14 19 -3 36 7 11 22 23 33 25 96 20 135 25 194 25
50 0 70 4 74 14 6 15 23 16 44 3 9 -6 11 -3 7 10 -5 17 -5 17 9 1 18 -22 27
-23 27 -2 0 13 9 15 48 11 46 -5 112 -25 122 -38 3 -4 22 -11 42 -17 43 -12
68 -33 68 -57 0 -20 -19 -57 -34 -67 -8 -6 -8 -10 1 -16 9 -5 6 -11 -8 -21
-12 -7 -18 -8 -15 -3 9 15 -23 37 -55 38 -31 1 -62 21 -54 34 3 5 2 11 -3 14
-5 3 -9 -2 -9 -10 0 -9 20 -30 43 -48 24 -19 40 -37 36 -41 -4 -5 -1 -5 6 -1
7 4 19 2 27 -4 18 -15 20 -31 2 -24 -7 2 -13 -4 -14 -15 -2 -27 47 -45 100
-37 23 4 67 9 97 12 30 3 75 17 99 30 50 28 67 30 75 9 7 -20 22 -19 30 1 5
14 4 15 -9 4 -12 -10 -15 -10 -15 2 0 8 6 20 13 27 10 11 10 13 0 7 -19 -10
-16 2 8 36 l22 30 13 -37 c7 -21 20 -45 30 -54 14 -13 15 -13 9 -1 -5 8 4 4
18 -9 15 -13 25 -27 23 -30 -2 -3 6 -7 17 -7 12 -1 47 -9 77 -19 96 -30 107
-30 145 0 20 14 32 31 29 37 -4 6 -2 8 4 5 23 -15 222 180 222 218 0 10 5 13
13 9 9 -6 9 -4 -1 8 -11 13 -9 17 12 22 42 10 167 218 158 264 -5 24 -6 25
-13 7 -4 -11 -5 7 -1 40 3 33 7 74 7 90 0 17 8 38 17 47 16 16 18 16 27 0 8
-13 10 -8 11 26 0 23 4 42 9 42 24 0 60 54 66 101 4 28 5 53 2 56 -3 2 -50
-13 -104 -35 -116 -46 -192 -66 -233 -60 -17 3 -30 1 -30 -4 0 -14 -41 12 -47
30 -3 9 -18 46 -34 81 -22 49 -27 67 -18 77 9 11 9 14 0 14 -10 0 -30 37 -35
65 -1 6 -5 16 -9 23 -5 6 -4 12 1 12 5 0 14 -10 20 -22 10 -22 11 -21 7 7 -1
17 -10 47 -19 68 -9 20 -13 37 -9 37 5 0 0 5 -9 11 -10 5 -15 16 -11 24 3 9 0
21 -5 28 -6 7 -16 34 -22 61 l-10 48 100 105 c56 58 107 118 116 134 8 16 19
29 23 29 5 0 15 16 21 35 16 49 27 52 63 18 18 -17 42 -37 55 -45 12 -9 44
-35 70 -60 64 -60 76 -67 67 -37 -32 106 -67 170 -125 229 l-61 61 -18 -22
-18 -23 -7 40 c-11 65 -27 96 -41 84 -10 -8 -15 -8 -21 1 -4 8 -3 9 4 5 28
-17 9 11 -21 31 -68 45 -357 125 -454 125 -18 0 -33 3 -33 8 0 7 -46 17 -129
27 -24 2 -56 9 -70 15 -34 14 -71 16 -71 5 0 -5 -7 -4 -16 4 -19 15 -83 19
-144 7z m-775 -288 c-3 -5 1 -10 9 -10 25 0 19 -38 -6 -46 -37 -11 -50 -25
-38 -39 13 -16 3 -60 -17 -76 -11 -10 -19 -10 -33 -2 -22 14 -40 -1 -40 -34 0
-13 -4 -23 -10 -23 -5 0 -10 16 -10 35 0 19 5 35 11 35 5 0 8 4 5 8 -7 12 35
96 74 144 15 18 66 26 55 8z m601 -261 c50 -24 80 -29 231 -41 16 -2 20 -6 13
-18 -5 -9 -3 -27 4 -45 7 -17 16 -47 20 -67 4 -20 13 -50 21 -65 8 -15 15 -42
15 -58 0 -17 4 -35 9 -40 5 -6 12 -32 15 -58 3 -27 10 -56 15 -65 7 -12 8 -1
4 34 -7 63 5 70 67 40 72 -35 84 -60 88 -186 3 -83 1 -116 -11 -139 -8 -17
-18 -44 -22 -61 -4 -17 -29 -51 -58 -80 -92 -89 -197 -179 -215 -184 -9 -3
-36 -10 -59 -16 -24 -6 -43 -16 -43 -21 0 -6 -7 -9 -15 -5 -24 9 -66 -40 -59
-70 3 -13 1 -38 -6 -54 -10 -24 -10 -33 0 -45 11 -13 8 -15 -18 -15 -28 0 -31
3 -30 30 1 21 -9 40 -33 64 -19 19 -46 48 -61 64 -14 17 -35 35 -46 41 -45 24
-50 37 -46 119 3 75 2 80 -29 128 -43 64 -54 94 -67 179 -12 72 -4 301 11 341
4 12 4 25 -1 30 -12 12 -13 72 -2 115 13 51 44 102 53 87 5 -7 24 5 54 36 25
27 49 46 51 43 3 -3 17 -1 32 3 33 10 64 4 118 -21z m449 -1148 c-3 -11 -10
-43 -15 -73 -5 -29 -16 -79 -23 -110 -8 -32 -11 -58 -7 -58 5 0 10 5 12 11 6
18 37 -18 34 -38 -2 -10 -8 -18 -14 -17 -39 3 -41 5 -35 21 4 10 2 14 -4 10
-15 -10 -40 -87 -39 -119 1 -16 -3 -28 -9 -28 -5 0 -3 -5 5 -10 11 -7 11 -10
2 -10 -7 0 -10 -6 -7 -12 8 -16 -41 39 -61 68 -12 18 -10 31 20 120 18 54 42
130 51 167 11 44 24 70 34 74 9 2 23 8 31 13 24 14 32 11 25 -9z"/>
<path d="M5700 2020 c-74 -5 -113 -18 -110 -36 1 -5 -9 -11 -22 -14 -40 -10
-34 -37 11 -44 22 -3 46 -12 54 -20 12 -12 73 -21 175 -27 29 -1 30 0 38 37 4
24 -1 36 -33 69 l-38 40 -75 -5z"/>
<path d="M5784 1464 c5 -17 1 -23 -20 -28 -16 -4 -32 -2 -42 6 -13 11 -12 8 2
-14 16 -25 55 -51 40 -26 -5 8 1 9 22 3 16 -5 39 -9 52 -9 12 -1 22 -5 22 -9
0 -5 5 -5 11 -1 20 12 28 -18 11 -44 l-16 -25 29 7 c41 10 105 53 105 71 0 8
-21 29 -47 46 -37 26 -59 33 -99 35 -45 2 -52 0 -48 -14 4 -13 2 -12 -11 3
-17 20 -17 20 -11 -1z"/>
</g>
</svg>
