<svg width="582" height="930" xmlns="http://www.w3.org/2000/svg">

 <metadata id="metadata7">image/svg+xml</metadata>
 <g>
  <title>background</title>
  <rect fill="none" id="canvas_background" height="402" width="582" y="-1" x="-1"/>
 </g>
 <g>
  <title>Layer 1</title>
  <g stroke="null" transform="rotate(-24 283.6986389160156,461.4764404296876) " id="layer1">
   <path fill="#ff6a9d" fill-rule="nonzero" id="path2985" d="m123.56397,657.197088l158.56472,-396.646413l161.704618,395.188151c-106.756448,51.265638 -213.51289,62.739025 -320.269337,1.458263z"/>
   <path fill="#fffcc2" fill-rule="nonzero" d="m323.058906,461.375866c-1.180435,1.096457 -28.402555,-13.756053 -30.05139,-13.513484c-1.648841,0.242573 -22.597407,22.1818 -24.084849,21.477829c-1.487436,-0.703966 5.307933,-29.34158 4.550044,-30.723197c-0.757884,-1.381617 -29.694892,-13.107923 -29.43374,-14.639457c0.261152,-1.531539 31.683038,-4.378039 32.863478,-5.474501c1.180435,-1.096457 4.244955,-30.282939 5.89379,-30.525508c1.648835,-0.242573 14.273265,26.6358 15.760701,27.339772c1.487436,0.703966 32.31842,-5.607963 33.076304,-4.226346c0.757889,1.381617 -22.861675,20.839871 -23.122822,22.371405c-0.261152,1.531539 15.728925,26.81703 14.548484,27.913487z" id="path3755"/>
   <path fill="#c2f0ff" fill-rule="nonzero" id="path3757" d="m215.19448,611.71695c-0.895164,0.391139 -12.861522,-12.966989 -13.833239,-13.139284c-0.971721,-0.172294 -17.394073,8.152266 -18.071183,7.482346c-0.677108,-0.669915 9.302453,-15.368847 9.178586,-16.280501c-0.123864,-0.911654 -13.722155,-12.846678 -13.245465,-13.651848c0.476691,-0.805173 18.610754,3.46852 19.505922,3.07738c0.895164,-0.391139 8.913314,-16.091948 9.885031,-15.919652c0.971718,0.172293 2.199628,17.512509 2.876735,18.182428c0.677108,0.669915 19.230887,2.901308 19.354751,3.812961c0.123867,0.911655 -17.25131,7.354807 -17.727997,8.159978c-0.476691,0.805173 2.972026,17.885055 2.076859,18.276193z"/>
   <path fill="#fffcc2" fill-rule="nonzero" d="m283.384453,633.458087c-1.532462,-0.218847 -4.510822,-27.31396 -5.612121,-28.32769c-1.101306,-1.013731 -30.297431,-3.534663 -30.546912,-4.956068c-0.249482,-1.421398 26.572805,-12.425322 27.270438,-13.711469c0.697636,-1.286143 -5.743282,-27.85692 -4.365006,-28.516545c1.378281,-0.659627 20.933717,19.63469 22.466186,19.853538c1.532462,0.218847 26.747885,-13.681859 27.849183,-12.668129c1.101303,1.013727 -13.635052,24.560229 -13.385574,25.98163c0.249482,1.421398 22.274385,19.401068 21.576749,20.687211c-0.697633,1.286147 -29.360645,-4.455632 -30.738919,-3.796004c-1.378281,0.659627 -12.981561,25.672377 -14.514025,25.453527z" id="path3759"/>
   <path fill="#c7ffc2" fill-rule="nonzero" id="path3761" d="m240.578717,527.806487c-0.365179,0.496624 -11.888714,-3.349192 -12.498416,-3.146792c-0.609704,0.202402 -6.89861,9.961346 -7.519952,9.792212c-0.621339,-0.169132 -0.244581,-11.537409 -0.640228,-12.013472c-0.395645,-0.476064 -12.331194,-3.015985 -12.350022,-3.617139c-0.018829,-0.601156 11.737554,-3.781318 12.102735,-4.277944c0.365179,-0.496624 -0.722486,-11.825326 -0.112784,-12.027725c0.609702,-0.202401 7.49879,9.200424 8.12013,9.369558c0.621339,0.169132 11.884673,-4.292468 12.280318,-3.816404c0.395647,0.476064 -7.103047,9.467494 -7.084217,10.068648c0.018829,0.601156 8.067617,9.172435 7.702436,9.66906z"/>
   <path fill="#c2fdff" fill-rule="nonzero" d="m379.810592,531.062146c0.064429,0.916934 -17.697575,6.374704 -18.225692,7.151694c-0.528117,0.776995 1.804995,18.019021 0.886054,18.359287c-0.918937,0.340266 -11.995901,-13.66409 -12.954659,-13.890521c-0.958756,-0.226433 -17.891874,7.162709 -18.524237,6.456069c-0.632365,-0.706642 10.283702,-14.819575 10.219273,-15.736513c-0.064429,-0.916934 -12.86278,-13.592222 -12.334663,-14.369213c0.528115,-0.776992 18.351578,4.505086 19.270517,4.164823c0.918937,-0.340266 9.942239,-15.563165 10.900995,-15.336732c0.958758,0.226431 1.058198,17.603872 1.690563,18.310511c0.632365,0.706642 19.007422,3.973659 19.071848,4.890595z" id="path3763"/>
   <path fill="#c2f0ff" fill-rule="nonzero" id="path3765" d="m390.738669,644.332967c-0.127721,0.911194 -18.690794,3.074844 -19.370732,3.742283c-0.679938,0.667443 -1.981196,18.003043 -2.953639,18.171789c-0.972438,0.168747 -8.924101,-15.561209 -9.817605,-15.955612c-0.893502,-0.394404 -19.045511,3.813063 -19.518788,3.006158c-0.47328,-0.806907 13.175397,-12.692199 13.303119,-13.603398c0.127721,-0.911194 -9.789576,-15.646439 -9.109638,-16.313878c0.679936,-0.667441 17.066945,7.716996 18.039385,7.548251c0.972438,-0.168747 12.995221,-13.483094 13.888722,-13.08869c0.893504,0.394403 -2.627445,17.461566 -2.154164,18.268469c0.47328,0.806907 17.821063,7.31343 17.693339,8.224626z"/>
   <path fill="#c7ffc2" fill-rule="nonzero" d="m222.071099,672.294247c-0.647432,-0.006539 -3.598798,-11.044874 -4.118443,-11.403643c-0.519648,-0.358769 -12.749734,0.198162 -12.943107,-0.375801c-0.193373,-0.57396 10.196742,-6.59222 10.403504,-7.16214c0.206764,-0.569918 -4.142781,-11.201837 -3.614859,-11.550025c0.527924,-0.348189 9.90073,6.970659 10.548165,6.977198c0.647432,0.006539 10.189354,-7.121277 10.708999,-6.762508c0.519647,0.358768 -4.077752,10.900324 -3.88438,11.474285c0.193373,0.57396 10.440148,6.800646 10.233385,7.370565c-0.206762,0.56992 -12.420921,-0.233888 -12.948841,0.114301c-0.527924,0.348189 -3.736988,11.324308 -4.384422,11.317767z" id="path3769"/>
   <path fill="#c7ffc2" fill-rule="nonzero" id="path3771" d="m362.048275,600.510873c-0.583434,-0.260781 1.779608,-11.420637 1.472624,-11.950151c-0.306987,-0.529515 -11.638594,-4.839374 -11.551872,-5.435366c0.086721,-0.595989 12.243504,-1.95707 12.690808,-2.39189c0.447305,-0.434817 1.358505,-11.776944 1.995537,-11.884504c0.637034,-0.107561 5.787293,10.211102 6.370729,10.471883c0.583434,0.260781 12.478195,-2.439177 12.785179,-1.909664c0.306986,0.529513 -8.666758,8.267879 -8.753481,8.863869c-0.086721,0.595989 6.353444,10.26945 5.90614,10.704267c-0.447304,0.434819 -11.143645,-5.101271 -11.780676,-4.993709c-0.637034,0.107561 -8.551552,8.786046 -9.134987,8.525263z"/>
   <path fill="#c7ffc2" fill-rule="nonzero" d="m286.560073,514.925866c-0.583434,-0.260781 1.779608,-11.420637 1.472624,-11.950151c-0.306987,-0.529515 -11.638594,-4.839374 -11.551872,-5.435366c0.086721,-0.595989 12.243504,-1.95707 12.690808,-2.39189c0.447305,-0.434817 1.358505,-11.776944 1.995537,-11.884504c0.637034,-0.107561 5.787293,10.211102 6.370729,10.471883c0.583434,0.260781 12.478195,-2.439177 12.785179,-1.909664c0.306986,0.529513 -8.666758,8.267879 -8.753481,8.863869c-0.086721,0.595989 6.353444,10.26945 5.90614,10.704267c-0.447304,0.434819 -11.143645,-5.101271 -11.780676,-4.993709c-0.637034,0.107561 -8.551552,8.786046 -9.134987,8.525263z" id="path3773"/>
   <path fill="#93ffac" fill-rule="nonzero" d="m348.793356,289.10356c0,35.877586 -31.312132,64.962118 -69.937602,64.962118c-38.62547,0 -69.937602,-29.084532 -69.937602,-64.962118c0,-35.877586 31.312132,-64.962118 69.937602,-64.962118c38.62547,0 69.937602,29.084532 69.937602,64.962118z" id="path3777"/>
  </g>
 </g>
</svg>